<svg width="90" height="82" viewBox="0 0 90 82" fill="none" xmlns="http://www.w3.org/2000/svg">
<rect x="1" y="1" width="88" height="80" rx="5" fill="#222831" stroke="#222831" stroke-width="2"/>
<path d="M19.0391 46.1758H26.5039V49H15.5234V31.9375H19.0391V46.1758ZM41.7969 40.8554C41.7969 42.5351 41.5 44.0078 40.9062 45.2734C40.3125 46.539 39.4609 47.5156 38.3516 48.2031C37.25 48.8906 35.9844 49.2343 34.5547 49.2343C33.1406 49.2343 31.8789 48.8945 30.7695 48.2148C29.6602 47.5351 28.8008 46.5664 28.1914 45.3086C27.582 44.0429 27.2734 42.5898 27.2656 40.9492V40.1054C27.2656 38.4258 27.5664 36.9492 28.168 35.6758C28.7773 34.3945 29.6328 33.414 30.7344 32.7343C31.8438 32.0468 33.1094 31.7031 34.5312 31.7031C35.9531 31.7031 37.2148 32.0468 38.3164 32.7343C39.4258 33.414 40.2812 34.3945 40.8828 35.6758C41.4922 36.9492 41.7969 38.4218 41.7969 40.0937V40.8554ZM38.2344 40.082C38.2344 38.2929 37.9141 36.9336 37.2734 36.0039C36.6328 35.0742 35.7188 34.6093 34.5312 34.6093C33.3516 34.6093 32.4414 35.0703 31.8008 35.9922C31.1602 36.9062 30.8359 38.25 30.8281 40.0234V40.8554C30.8281 42.5976 31.1484 43.9492 31.7891 44.9101C32.4297 45.8711 33.3516 46.3515 34.5547 46.3515C35.7344 46.3515 36.6406 45.8906 37.2734 44.9687C37.9062 44.039 38.2266 42.6875 38.2344 40.914V40.082ZM57.8516 46.8437C57.2188 47.6015 56.3242 48.1914 55.168 48.6133C54.0117 49.0273 52.7305 49.2343 51.3242 49.2343C49.8477 49.2343 48.5508 48.914 47.4336 48.2734C46.3242 47.625 45.4648 46.6875 44.8555 45.4609C44.2539 44.2343 43.9453 42.7929 43.9297 41.1367V39.9765C43.9297 38.2734 44.2148 36.8008 44.7852 35.5586C45.3633 34.3086 46.1914 33.3554 47.2695 32.6992C48.3555 32.0351 49.625 31.7031 51.0781 31.7031C53.1016 31.7031 54.6836 32.1875 55.8242 33.1562C56.9648 34.1172 57.6406 35.5195 57.8516 37.3633H54.4297C54.2734 36.3867 53.9258 35.6718 53.3867 35.2187C52.8555 34.7656 52.1211 34.539 51.1836 34.539C49.9883 34.539 49.0781 34.9883 48.4531 35.8867C47.8281 36.7851 47.5117 38.1211 47.5039 39.8945V40.9843C47.5039 42.7734 47.8438 44.125 48.5234 45.039C49.2031 45.9531 50.1992 46.4101 51.5117 46.4101C52.832 46.4101 53.7734 46.1289 54.3359 45.5664V42.625H51.1367V40.0351H57.8516V46.8437ZM74.7266 40.8554C74.7266 42.5351 74.4297 44.0078 73.8359 45.2734C73.2422 46.539 72.3906 47.5156 71.2812 48.2031C70.1797 48.8906 68.9141 49.2343 67.4844 49.2343C66.0703 49.2343 64.8086 48.8945 63.6992 48.2148C62.5898 47.5351 61.7305 46.5664 61.1211 45.3086C60.5117 44.0429 60.2031 42.5898 60.1953 40.9492V40.1054C60.1953 38.4258 60.4961 36.9492 61.0977 35.6758C61.707 34.3945 62.5625 33.414 63.6641 32.7343C64.7734 32.0468 66.0391 31.7031 67.4609 31.7031C68.8828 31.7031 70.1445 32.0468 71.2461 32.7343C72.3555 33.414 73.2109 34.3945 73.8125 35.6758C74.4219 36.9492 74.7266 38.4218 74.7266 40.0937V40.8554ZM71.1641 40.082C71.1641 38.2929 70.8438 36.9336 70.2031 36.0039C69.5625 35.0742 68.6484 34.6093 67.4609 34.6093C66.2812 34.6093 65.3711 35.0703 64.7305 35.9922C64.0898 36.9062 63.7656 38.25 63.7578 40.0234V40.8554C63.7578 42.5976 64.0781 43.9492 64.7188 44.9101C65.3594 45.8711 66.2812 46.3515 67.4844 46.3515C68.6641 46.3515 69.5703 45.8906 70.2031 44.9687C70.8359 44.039 71.1562 42.6875 71.1641 40.914V40.082Z" fill="white"/>
</svg>
